<svg xmlns="http://www.w3.org/2000/svg" width="185.99182mm" height="227.68893mm" viewBox="0 0 185.99182 227.68893"><path d="M0 0s21.206-26.685 57.759-29.246c36.559-2.558 48.985 13.891 60.686 9.138 11.696-4.753-3.366-32.798-.365-69.093 4.024-48.616 17.186-69.82 12.061-108.935-4.156-31.785-25.895-53.098-48.619-64.349-34.727-17.171-57.028-14.256-78.597-41.307-16.084 15.726-31.803 27.051-69.09 37.295-52.669 14.45-56.992 63.48-58.493 73.474-3.291 21.93 9.376 77.509 10.6 101.269 2.196 42.401-12.059 57.755-4.383 67.995 7.674 10.234 25.955-5.855 60.687-7.317C-23.027-32.54 0 0 0 0" style="fill:#dc072e;fill-opacity:1;fill-rule:nonzero;stroke:none" transform="matrix(.72508 0 0 -.72508 90.782 0)"/><path d="M0 0s21.092-22.469 55.2-24.861c34.106-2.386 53.371 14.259 58.49 10.238 6.456-5.078-6.581-24.126-2.193-66.533 4.684-45.272 17.207-66.599 12.431-103.091-3.883-29.662-25.229-51.294-46.425-61.78-32.405-16.031-55.185-12.049-75.31-37.282-15.005 14.666-31.011 25.171-65.805 34.725-49.138 13.486-52.636 53.736-55.197 70.192-3.18 20.444 9.818 71.419 10.966 93.584 2.044 39.563-9.141 63.602-5.481 67.627 5.214 5.74 26.488-11.116 58.91-10.285C-23.764-26.685 0 0 0 0" style="fill:#fff;fill-opacity:1;fill-rule:nonzero;stroke:none" transform="matrix(.72508 0 0 -.72508 91.049 8.484)"/><path d="M0 0s21.756-21.173 54.742-23.482c32.985-2.308 52.303 13.111 56.663 9.868 4.915-3.653-6.8-24.057-2.557-65.068 4.527-43.788 17.042-65.245 12.425-100.532-3.752-28.68-16.814-44.596-44.963-59.217-31.02-16.122-56.297-15.353-73.477-36.565-14.512 14.189-31.794 24.037-65.436 33.27-47.525 13.043-51.263 53.551-53.738 69.461-3.074 19.775 9.858 68.852 10.964 90.294 1.981 38.256-8.636 62.328-5.483 66.533 3.292 4.381 25.224-11.701 57.393-9.87C-23.861-23.629 0 0 0 0" style="fill:#dc072e;fill-opacity:1;fill-rule:nonzero;stroke:none" transform="matrix(.72508 0 0 -.72508 91.265 11.65)"/><path d="M0 0c0 .399-.055.74-.164 1.021l-.542.688c-.255.173-.585.299-.991.377a8.645 8.645 0 0 1-1.528.113h-1.747v-4.256h1.782c.462 0 .889.047 1.281.143.389.094.729.232 1.008.415l.662.649zm2.019-7.285v-.136l-.134-.065H1l-.373.201C.118-6.39-.307-5.659-.646-5.092a78.57 78.57 0 0 0-.795 1.349c-.24.389-.421.689-.546.899l-.72-.085-.839-.028h-1.426v-4.328l-.238-.201h-.765l-.237.201v9.94l.009.244.059.128.151.051.288.007h3.209c.647 0 1.202-.074 1.671-.221.47-.148.863-.355 1.173-.623.31-.265.544-.59.694-.97.156-.382.23-.803.23-1.271l-.179-.813-.484-.717-.701-.593-.825-.433Z" style="fill:#dc072e;fill-opacity:1;fill-rule:nonzero;stroke:none" transform="matrix(.72508 0 0 -.72508 110.31 218.768)"/><path d="M0 0h-.881a8.158 8.158 0 0 0-8.152-8.151A8.158 8.158 0 0 0-17.184 0a8.16 8.16 0 0 0 8.151 8.151A8.16 8.16 0 0 0-.881 0H.881c0 5.476-4.438 9.914-9.914 9.916-5.474-.002-9.914-4.44-9.914-9.916 0-5.478 4.44-9.914 9.914-9.914A9.912 9.912 0 0 1 .881 0z" style="fill:#dc072e;fill-opacity:1;fill-rule:nonzero;stroke:none" transform="matrix(.72508 0 0 -.72508 114.853 220.5)"/><path d="M0 0h-8.417v24.361h-21.281v6.705H4.928c.617 1.918 1.027 3.971 1.299 6.297.139 2.19.275 4.31.275 6.227v7.527h-29.906v6.5H12.73c.615 0 1.163-.203 1.575-.615.409-.409.614-.957.614-1.505V44c0-2.19-.205-4.447-.478-6.637a48.04 48.04 0 0 0-1.369-6.297h8.281v-6.705H0Z" style="fill:#fff;fill-opacity:1;fill-rule:nonzero;stroke:none" transform="matrix(.72508 0 0 -.72508 96.691 78.782)"/><path d="M643.656 865.112h8.144v-59.534h-8.144zm-20.257-18.134h7.733v18.134h8.144v-59.535h-8.144v34.762h-7.733zm-4.585 15.602v-14.029c0-1.984.07-4.038.342-6.158.137-2.19.549-4.311 1.233-6.297.615-2.054 1.506-3.832 2.738-5.473 1.094-1.642 2.668-2.944 4.585-3.832v-6.503c-1.369.137-2.737.616-4.106 1.3a21.496 21.496 0 0 0-3.971 2.465 18.723 18.723 0 0 0-3.283 3.284c-.958 1.163-1.712 2.395-2.12 3.695a19.634 19.634 0 0 0-2.054-3.695 23.733 23.733 0 0 0-3.08-3.284c-1.233-.957-2.463-1.78-3.765-2.465-1.369-.684-2.735-1.163-4.104-1.3v6.503a12.434 12.434 0 0 1 4.722 4.104c1.163 1.642 2.053 3.559 2.735 5.613.548 1.984.96 4.037 1.166 6.227.136 2.12.273 4.107.273 5.954v13.891z" style="fill:#fff;fill-opacity:1;fill-rule:nonzero;stroke:none" transform="matrix(.72508 0 0 -.72508 -362.123 712.276)"/><path d="M0 0c-.958 0-1.778.206-2.599.548-.821.409-1.575.957-2.123 1.573a6.773 6.773 0 0 0-1.369 2.328c-.409.957-.546 1.915-.546 2.942v13.686H1.78V9.238c0-.751.204-1.369.685-1.847.409-.479.888-.752 1.505-.752h28.262V0Zm18.478 12.524h-8.419v15.329h-22.787v6.5H22.24a36.84 36.84 0 0 1 1.027 5.336 70.53 70.53 0 0 1 .206 5.407v5.682H-6.434v6.5H29.7c.615 0 1.163-.206 1.575-.615.409-.412.615-.96.615-1.575v-9.65c0-4.104-.548-7.799-1.505-11.085h7.938v-6.5H18.478Z" style="fill:#fff;fill-opacity:1;fill-rule:nonzero;stroke:none" transform="matrix(.72508 0 0 -.72508 84.386 177.499)"/></svg>